<svg width="36" height="36" viewBox="0 0 36 36" xmlns="http://www.w3.org/2000/svg">
<path d="M33.1403 9.27505L31.4636 8.30561L18.0283 16.0611L4.59845 8.30561L2.92175 9.27505L2.92175 26.7304L4.59845 27.6999L12.9819 22.8527V20.9138L11.3052 19.9443L7.95183 21.8832L6.27514 20.9138L6.27514 15.0971L7.95183 14.1277L18.0229 19.9443L28.0939 14.1277L29.7706 15.0971V20.9138L28.0939 21.8832L24.7405 19.9443L23.0638 20.9138V22.8527L31.4582 27.6999L33.1349 26.7304L33.1403 9.27505Z"/>
<path d="M9.63397 5.39728V7.33616L11.3107 8.3056L18.0229 4.42784L24.7351 8.3056L26.4118 7.33616V5.39728L18.0174 0.55008L9.63397 5.39728Z"/>
<path d="M18.0283 31.5776L11.3161 27.6999L9.63397 28.6693V30.6082L18.0283 35.4554L26.4227 30.6082V28.6693L24.746 27.6999L18.0283 31.5776Z"/>
</svg>